<?xml version="1.0"?>
<svg version="1.1" id="圖層_1" xmlns="http://www.w3.org/2000/svg" x="0" y="0" viewBox="0 0 100 100" xml:space="preserve"><path d="M76.5 90h-53C16 90 10 84 10 76.5v-53C10 16 16 10 23.5 10h53C84 10 90 16 90 23.5v53C90 84 84 90 76.5 90z" fill="#fff"/><g><path d="M65.1 70.6H34.9c-1.1 0-2-.9-2-2v-9.2c0-1.1.9-2 2-2s2 .9 2 2v7.2h26.2v-7.2c0-1.1.9-2 2-2s2 .9 2 2v9.2c.1 1.1-.8 2-2 2z" fill="#802942"/></g><path id="XMLID_20_" d="M66.7 47L51.9 61.9c-1 1-2.7 1-3.7 0L33.3 47c-1-1-1-2.7 0-3.7s2.7-1 3.7 0l10.4 10.4V31c0-1.5 1.2-2.6 2.6-2.6 1.5 0 2.6 1.2 2.6 2.6v22.7L63 43.3c1-1 2.7-1 3.7 0 1.1 1 1.1 2.7 0 3.7z" fill="#802942"/><metadata xmlns:d="https://loading.io/stock/"><d:name>download</d:name><d:tags>download,receive,cloud,fetch,sync,ftp</d:tags><d:license>by</d:license><d:slug>xkiztc</d:slug></metadata></svg>